<?xml version="1.0" encoding="utf-8"?>
<!-- Generator: Adobe Illustrator 28.2.0, SVG Export Plug-In . SVG Version: 6.00 Build 0)  -->
<svg version="1.1" id="Layer_1" xmlns="http://www.w3.org/2000/svg" xmlns:xlink="http://www.w3.org/1999/xlink" x="0px" y="0px"
	 viewBox="0 0 1080 288" style="enable-background:new 0 0 1080 288;" xml:space="preserve">
<style type="text/css">
	.st0{fill:#007089;}
	.st1{fill:url(#SVGID_1_);}
	.st2{fill:url(#SVGID_00000026851557689237319740000013792876326415220869_);}
	.st3{fill:url(#SVGID_00000031924712609312743540000006320584104725779644_);}
</style>
<g>
	<polygon class="st0" points="358.62,176.46 340.57,121.76 339.38,121.76 327.65,121.76 326.61,121.76 308.21,177.18 289.92,121.76 
		275.66,121.76 300.91,196.03 301.95,196.03 314.43,196.03 315.02,196.03 333.51,139.65 352.01,196.03 365.08,196.03 365.97,196.03 
		391.22,121.76 377.11,121.76 	"/>
	<path class="st0" d="M456.13,123.55c-4.26-2.38-9.31-3.56-15.15-3.56c-5.94,0-11.07,1.49-15.37,4.46c-2.98,2.05-5.47,4.75-7.5,8.06
		V92.06h-13.96v103.97h13.96v-38.62c0-7.72,1.68-13.71,5.05-17.97c3.36-4.26,8.12-6.39,14.26-6.39c3.47,0.1,6.56,0.84,9.28,2.23
		c2.72,1.39,4.88,3.84,6.46,7.35c1.58,3.52,2.38,8.64,2.38,15.37v38.02h13.96v-38.02v-3.71c0.1-8.12-1.04-14.68-3.42-19.68
		C463.7,129.61,460.38,125.92,456.13,123.55z"/>
	<path class="st0" d="M496.82,88.94c-2.28,0-4.26,0.82-5.94,2.45c-1.68,1.63-2.52,3.64-2.52,6.02c0,2.28,0.84,4.28,2.52,6.02
		c1.68,1.73,3.66,2.6,5.94,2.6c2.38,0,4.38-0.87,6.02-2.6c1.63-1.73,2.45-3.74,2.45-6.02c0-2.38-0.82-4.38-2.45-6.02
		C501.2,89.75,499.2,88.94,496.82,88.94z"/>
	<rect x="489.69" y="121.76" class="st0" width="14.11" height="74.27"/>
	<path class="st0" d="M559.35,184.3c-1.19,0.4-2.28,0.59-3.27,0.59c-3.47,0-6.11-0.97-7.95-2.9c-1.83-1.93-2.75-4.73-2.75-8.39
		v-39.66h21.09v-12.18h-21.09V98.59h-14.11v23.17h-12.62v12.18h12.62v41.74c0,7.13,2.03,12.6,6.09,16.41
		c4.06,3.81,9.8,5.72,17.23,5.72c2.38,0,4.73-0.4,7.06-1.19c2.33-0.79,4.78-2.03,7.35-3.71l-5.35-10.99
		C561.98,183.11,560.54,183.9,559.35,184.3z"/>
	<path class="st0" d="M646.91,139.66c-2.92-6.29-6.96-11.14-12.11-14.56c-5.15-3.42-11.14-5.12-17.97-5.12
		c-7.23,0-13.64,1.66-19.23,4.98c-5.6,3.32-9.98,7.9-13.15,13.74c-3.17,5.84-4.75,12.58-4.75,20.2c0,7.63,1.58,14.36,4.75,20.2
		c3.17,5.84,7.52,10.42,13.07,13.74c5.55,3.32,11.93,4.98,19.16,4.98c5.35,0,10.17-0.79,14.48-2.38c4.31-1.58,8.04-3.84,11.21-6.76
		c3.17-2.92,5.74-6.31,7.72-10.17l-12.18-5.64c-1.88,3.56-4.48,6.51-7.8,8.84c-3.32,2.33-7.45,3.49-12.4,3.49
		c-4.56,0-8.61-1.01-12.18-3.05c-3.57-2.03-6.39-4.98-8.47-8.84c-1.78-3.3-2.79-7.12-3.05-11.44h57.26
		C651.29,153.35,649.83,145.95,646.91,139.66z M598.04,141.67c2.13-3.07,4.85-5.42,8.17-7.06c3.32-1.63,6.76-2.45,10.32-2.45
		c3.66,0,6.98,0.82,9.95,2.45c2.97,1.63,5.35,4.01,7.13,7.13c1.47,2.57,2.32,5.57,2.58,8.99h-41.24
		C595.26,147.23,596.28,144.21,598.04,141.67z"/>
	<path class="st0" d="M711.74,158.23c-3.17-2.42-7.18-4.23-12.03-5.42l-8.02-1.93c-3.76-0.99-6.61-2.25-8.54-3.79
		c-1.93-1.53-2.9-3.14-2.9-4.83c0-3.07,1.14-5.47,3.42-7.2c2.28-1.73,5.4-2.6,9.36-2.6c3.86,0,7.23,0.72,10.1,2.15
		c2.87,1.44,4.9,3.64,6.09,6.61l11.88-5.35c-1.09-3.27-2.95-6.09-5.57-8.47c-2.62-2.38-5.79-4.21-9.51-5.5
		c-3.71-1.29-7.8-1.93-12.25-1.93c-9.11,0-15.99,1.98-20.65,5.94c-4.66,3.96-6.98,9.56-6.98,16.78c0,4.75,1.91,9.01,5.72,12.77
		c3.81,3.76,9.18,6.59,16.12,8.47l6.98,1.78c3.96,0.99,6.98,2.28,9.06,3.86c2.08,1.58,3.12,3.76,3.12,6.54
		c0,2.87-1.39,5.1-4.16,6.68c-2.77,1.58-6.29,2.38-10.55,2.38c-3.86,0-7.38-0.99-10.55-2.97c-3.17-1.98-5.55-4.51-7.13-7.58
		l-12.18,5.35c1.39,3.37,3.49,6.39,6.31,9.06c2.82,2.67,6.29,4.8,10.4,6.39c4.11,1.58,8.79,2.38,14.04,2.38
		c5.35,0,10.12-0.89,14.33-2.67c4.21-1.78,7.52-4.33,9.95-7.65c2.43-3.32,3.64-7.2,3.64-11.66c0-3.27-0.79-6.41-2.38-9.43
		C717.29,163.38,714.91,160.66,711.74,158.23z"/>
	<path class="st0" d="M770.86,184.3c-1.19,0.4-2.28,0.59-3.27,0.59c-3.47,0-6.12-0.97-7.95-2.9c-1.83-1.93-2.75-4.73-2.75-8.39
		v-39.66h21.09v-12.18H756.9V98.59h-14.11v23.17h-12.62v12.18h12.62v41.74c0,7.13,2.03,12.6,6.09,16.41
		c4.06,3.81,9.8,5.72,17.23,5.72c2.38,0,4.73-0.4,7.06-1.19c2.33-0.79,4.78-2.03,7.35-3.71l-5.35-10.99
		C773.48,183.11,772.05,183.9,770.86,184.3z"/>
	<path class="st0" d="M848.09,124.96c-5.64-3.32-12.18-4.98-19.61-4.98c-7.23,0-13.67,1.66-19.31,4.98
		c-5.64,3.32-10.05,7.9-13.22,13.74c-3.17,5.84-4.75,12.58-4.75,20.2c0,7.63,1.61,14.36,4.83,20.2c3.22,5.84,7.65,10.42,13.29,13.74
		c5.64,3.32,12.18,4.98,19.61,4.98c7.23,0,13.64-1.66,19.23-4.98c5.59-3.32,9.98-7.9,13.15-13.74c3.17-5.84,4.75-12.57,4.75-20.2
		c0-7.62-1.59-14.36-4.75-20.2C858.14,132.85,853.74,128.28,848.09,124.96z M848.84,172.41c-1.98,3.86-4.68,6.91-8.09,9.13
		c-3.42,2.23-7.35,3.34-11.81,3.34c-4.56,0-8.62-1.11-12.18-3.34c-3.56-2.23-6.34-5.27-8.32-9.13c-1.98-3.86-2.97-8.37-2.97-13.52
		c0-5.05,0.99-9.53,2.97-13.44c1.98-3.91,4.7-6.98,8.17-9.21c3.46-2.23,7.48-3.34,12.03-3.34c4.46,0,8.44,1.11,11.96,3.34
		c3.51,2.23,6.26,5.27,8.24,9.14c1.98,3.86,2.97,8.37,2.97,13.52C851.81,164.05,850.82,168.55,848.84,172.41z"/>
	<path class="st0" d="M935.06,123.55c-4.31-2.38-9.38-3.56-15.22-3.56c-5.94,0-11.07,1.49-15.37,4.46c-3,2.07-5.5,4.78-7.54,8.12
		l-0.7-10.79H883v74.27h14.11v-38.62c0-7.72,1.68-13.71,5.05-17.97c3.36-4.26,8.07-6.39,14.11-6.39c3.56,0.1,6.71,0.84,9.43,2.23
		c2.72,1.39,4.85,3.84,6.39,7.35c1.53,3.52,2.3,8.64,2.3,15.37v38.02h14.11v-38.02v-3.71c0-8.12-1.16-14.68-3.49-19.68
		C942.68,129.61,939.37,125.92,935.06,123.55z"/>
	<path class="st0" d="M1014.08,181.7c-3.32,2.33-7.45,3.49-12.4,3.49c-4.56,0-8.61-1.01-12.18-3.05c-3.57-2.03-6.39-4.98-8.47-8.84
		c-1.78-3.3-2.79-7.12-3.05-11.44h57.26c0-8.51-1.46-15.92-4.38-22.21c-2.92-6.29-6.96-11.14-12.11-14.56
		c-5.15-3.42-11.14-5.12-17.97-5.12c-7.23,0-13.64,1.66-19.23,4.98c-5.6,3.32-9.98,7.9-13.15,13.74c-3.17,5.84-4.75,12.58-4.75,20.2
		c0,7.63,1.58,14.36,4.75,20.2c3.17,5.84,7.52,10.42,13.07,13.74c5.55,3.32,11.93,4.98,19.16,4.98c5.35,0,10.17-0.79,14.48-2.38
		c4.31-1.58,8.04-3.84,11.21-6.76c3.17-2.92,5.74-6.31,7.72-10.17l-12.18-5.64C1019.99,176.42,1017.39,179.37,1014.08,181.7z
		 M981.99,141.67c2.13-3.07,4.85-5.42,8.17-7.06c3.32-1.63,6.76-2.45,10.32-2.45c3.66,0,6.98,0.82,9.95,2.45
		c2.97,1.63,5.35,4.01,7.13,7.13c1.47,2.57,2.32,5.57,2.58,8.99h-41.24C979.21,147.23,980.23,144.21,981.99,141.67z"/>
</g>
<g>
	<g>
		<linearGradient id="SVGID_1_" gradientUnits="userSpaceOnUse" x1="44.9484" y1="217.379" x2="305.6733" y2="-43.3458">
			<stop  offset="0" style="stop-color:#007089"/>
			<stop  offset="0.5351" style="stop-color:#00B6BF"/>
		</linearGradient>
		<path class="st1" d="M163.64,66.81c-24.35-4.35-45.66,3.47-63.99,20.85c-25.84,23.6-50.06,55.87-54,91.6
			c-1.78,15.89,4.96,31.51,20.63,36.72c16.17,5.67,36.07,5.65,52.1-1.19c20.88-8.77,28.25-31.32,39.65-49.57
			c8.99-14.59,21.26-27.57,28.98-42.94c13.15-24.41,5.7-49.94-22.91-55.38L163.64,66.81z"/>
		
			<linearGradient id="SVGID_00000140711212477955795630000000565292284892730502_" gradientUnits="userSpaceOnUse" x1="99.8933" y1="292.6335" x2="231.0872" y2="161.4397">
			<stop  offset="0.5739" style="stop-color:#007089"/>
			<stop  offset="1" style="stop-color:#00B6BF"/>
		</linearGradient>
		<path style="fill:url(#SVGID_00000140711212477955795630000000565292284892730502_);" d="M248.09,192.23
			c-1.32-14.09-17.7-26.65-31-32.2c-15.36-6.83-34.44-6.47-46.93,5.55c-22.06,21.29-10.74,56.98,21.18,56.86
			c18.72,0.5,57.5-6.56,56.78-29.84L248.09,192.23z"/>
		
			<linearGradient id="SVGID_00000031916568626481090350000001309186526093084560_" gradientUnits="userSpaceOnUse" x1="81.0854" y1="267.2584" x2="329.6623" y2="18.6815">
			<stop  offset="0.3814" style="stop-color:#007089"/>
			<stop  offset="0.7164" style="stop-color:#00B6BF"/>
		</linearGradient>
		<path style="fill:url(#SVGID_00000031916568626481090350000001309186526093084560_);" d="M205.59,147.22
			c12.39,9.23,31.83,1.33,35.22-13.57c3.33-11.53-4.2-25.52-15.25-28.08c-21.39-5.33-38.48,28.09-20.33,41.38L205.59,147.22z"/>
	</g>
</g>
</svg>
